<svg width="62" height="62" viewBox="0 0 62 62" fill="none" xmlns="http://www.w3.org/2000/svg">
<g id="Frame 2">
<g id="Group 2096">
<path id="Vector" d="M14.7417 18.99L19.8792 14.2561C20.0606 14.0879 20.2736 13.9575 20.5057 13.8724C20.7378 13.7873 20.9845 13.7492 21.2315 13.7604C21.4784 13.7715 21.7207 13.8317 21.9442 13.9374C22.1677 14.0431 22.3681 14.1923 22.5336 14.3761L26.0785 18.304C25.9072 18.5269 25.3764 19.0415 24.6914 19.8991L22.585 22.6606C22.5295 22.7284 22.4835 22.8034 22.448 22.8836C21.8632 23.9162 21.4989 25.0592 21.378 26.2402C21.2571 27.4211 21.3824 28.6144 21.7459 29.7444C22.5792 32.0264 23.9001 34.0986 25.6161 35.8162C27.196 37.6721 29.199 39.1194 31.4558 40.0356C32.5191 40.4569 33.6676 40.6176 34.8055 40.5042C35.9435 40.3908 37.0379 40.0067 37.9975 39.3838L40.9088 37.4799C41.8164 36.8796 42.3815 36.3822 42.6213 36.2278L46.1661 40.0871C46.3373 40.2665 46.4707 40.4786 46.5584 40.7107C46.6461 40.9428 46.6864 41.1902 46.6768 41.4381C46.6672 41.6861 46.6079 41.9296 46.5026 42.1542C46.3972 42.3788 46.2479 42.58 46.0634 42.7456L40.9259 47.4967C39.4703 48.8175 36.4734 48.9547 33.1683 47.9599C30.0469 47.0305 27.1931 45.3661 24.8455 43.1058L17.7557 35.4732C15.7043 32.9388 14.2839 29.9523 13.6115 26.7599C12.9094 23.381 13.2861 20.3965 14.7417 18.99ZM12.5497 16.6917C9.74122 19.2645 9.62135 23.5525 10.4433 27.4288C11.1936 31.2213 12.8903 34.7617 15.3754 37.7201L22.4137 45.4042C25.1315 48.126 28.4968 50.1094 32.1921 51.1673C36.0281 52.3336 40.2409 52.5566 43.0494 49.9666L48.1869 45.2327C49.1807 44.3106 49.7707 43.0327 49.8284 41.6771C49.8861 40.3215 49.4069 38.998 48.4951 37.9945L45.0188 34.1353C44.5744 33.5979 43.977 33.209 43.3063 33.0204C42.6432 32.8915 41.9561 32.9881 41.354 33.2948C40.5856 33.745 39.8579 34.2615 39.1791 34.8385L36.285 36.7596C35.7545 37.1208 35.1392 37.3376 34.4997 37.3888C33.8602 37.4399 33.2184 37.3235 32.6374 37.0511C30.8656 36.2745 29.2955 35.1009 28.0479 33.6207C26.668 32.2297 25.5946 30.5645 24.8969 28.7324C24.6384 28.027 24.5411 27.2725 24.6123 26.5245C24.6834 25.7765 24.9211 25.0539 25.3079 24.4101L27.3457 21.8544C27.9723 21.2169 28.5451 20.5284 29.0582 19.7962C29.4112 19.2217 29.562 18.5454 29.4864 17.8752C29.3665 17.1729 29.0313 16.5255 28.5274 16.0227L24.914 12.2493C23.9934 11.2539 22.7175 10.663 21.3641 10.6052C20.0106 10.5474 18.6891 11.0273 17.6872 11.9405L12.5497 16.6917Z" fill="#5E3BEE"/>
<path id="Vector_2" d="M15.0843 14.3076C14.8003 14.6227 14.6431 15.0322 14.6431 15.4567C14.6431 15.8813 14.8003 16.2908 15.0843 16.6059L22.174 24.3415C22.478 24.638 22.881 24.8109 23.3049 24.8267C23.7289 24.8425 24.1436 24.7002 24.4688 24.4273C24.6254 24.2844 24.7523 24.112 24.8422 23.9199C24.9321 23.7279 24.9833 23.5199 24.9929 23.308C25.0024 23.0961 24.9701 22.8844 24.8978 22.685C24.8255 22.4856 24.7146 22.3024 24.5715 22.146L17.3962 14.4105C17.2531 14.2485 17.0789 14.117 16.8841 14.0238C16.6893 13.9307 16.4777 13.8777 16.262 13.8681C16.0463 13.8585 15.8309 13.8925 15.6285 13.968C15.4262 14.0435 15.2411 14.1589 15.0843 14.3076Z" fill="#5E3BEE"/>
<path id="Vector_3" d="M36.3709 37.48C36.0869 37.7952 35.9297 38.2046 35.9297 38.6292C35.9297 39.0537 36.0869 39.4632 36.3709 39.7784L43.4778 47.5139C43.7685 47.8301 44.1726 48.0176 44.6014 48.0353C45.0301 48.053 45.4483 47.8994 45.764 47.6083C46.0796 47.3171 46.2669 46.9123 46.2846 46.4829C46.3022 46.0535 46.1488 45.6346 45.8582 45.3185L38.6828 37.5829C38.5397 37.4209 38.3656 37.2894 38.1707 37.1963C37.9759 37.1031 37.7643 37.0501 37.5486 37.0405C37.3329 37.0309 37.1175 37.0649 36.9152 37.1404C36.7128 37.2159 36.5277 37.3314 36.3709 37.48Z" fill="#5E3BEE"/>
<path id="Vector_4" d="M37.2247 17.2748C36.9889 17.4932 36.8237 17.7771 36.7504 18.0902C36.677 18.4033 36.6988 18.7312 36.8129 19.0318C36.9271 19.3324 37.1284 19.5919 37.391 19.777C37.6535 19.9622 37.9654 20.0644 38.2864 20.0706C39.298 20.1195 40.2492 20.5672 40.9326 21.3159C41.6159 22.0646 41.9759 23.0535 41.934 24.067C41.9262 24.2788 41.96 24.49 42.0336 24.6886C42.1073 24.8872 42.2192 25.0694 42.3631 25.2247C42.5071 25.38 42.6801 25.5053 42.8724 25.5937C43.0647 25.682 43.2725 25.7315 43.4839 25.7394C43.6952 25.7472 43.9061 25.7133 44.1044 25.6396C44.3028 25.5659 44.4846 25.4537 44.6397 25.3096C44.7947 25.1654 44.9199 24.9921 45.0081 24.7995C45.0962 24.6069 45.1457 24.3988 45.1535 24.1871C45.212 23.2406 45.0782 22.2921 44.7603 21.3988C44.4424 20.5055 43.947 19.6861 43.304 18.99C42.0331 17.6185 40.2729 16.8048 38.4063 16.726C37.9556 16.7459 37.531 16.9431 37.2247 17.2748Z" fill="#5E3BEE"/>
<path id="Vector_5" d="M37.3982 10.5341C37.1911 10.7637 37.0544 11.048 37.0042 11.3533C36.9541 11.6586 36.9927 11.9719 37.1155 12.2558C37.2383 12.5396 37.44 12.7822 37.6966 12.9544C37.9532 13.1266 38.2539 13.2212 38.5627 13.227C39.9567 13.2843 41.3256 13.6166 42.5911 14.205C43.8565 14.7933 44.9936 15.626 45.937 16.6554C46.8805 17.6848 47.6118 18.8906 48.089 20.2037C48.5662 21.5167 48.7799 22.9112 48.7179 24.3072C48.6939 24.7511 48.843 25.1871 49.1337 25.523C49.4245 25.859 49.8341 26.0688 50.2762 26.1082C50.7304 26.1082 51.166 25.9275 51.4871 25.6058C51.8083 25.2841 51.9887 24.8479 51.9887 24.393C52.0644 22.5716 51.7796 20.7532 51.1508 19.0424C50.522 17.3317 49.5616 15.7624 48.3249 14.4249C47.0882 13.0874 45.5996 12.0081 43.9448 11.2491C42.2899 10.4901 40.5016 10.0664 38.6826 10.0024C38.4424 9.98929 38.2024 10.0303 37.9802 10.1223C37.7579 10.2143 37.559 10.355 37.3982 10.5341Z" fill="#5E3BEE"/>
<path id="Vector_6" d="M34.3984 25.0276C34.2421 25.1717 34.1157 25.3453 34.0264 25.5384C33.9371 25.7315 33.8866 25.9403 33.8778 26.1529C33.8691 26.3656 33.9022 26.5778 33.9754 26.7776C34.0486 26.9774 34.1603 27.1608 34.3042 27.3174C34.4482 27.4739 34.6215 27.6005 34.8142 27.69C35.007 27.7795 35.2155 27.83 35.4278 27.8388C35.6401 27.8475 35.852 27.8143 36.0515 27.7411C36.251 27.6678 36.4341 27.5559 36.5904 27.4117L37.8748 26.2282C38.1905 25.9371 38.3777 25.5323 38.3954 25.1029C38.413 24.6734 38.2597 24.2546 37.969 23.9384C37.6783 23.6223 37.2741 23.4347 36.8454 23.417C36.4166 23.3993 35.9985 23.553 35.6828 23.8441L34.3984 25.0276Z" fill="#5E3BEE"/>
</g>
</g>
</svg>
