<svg width="42" height="42" viewBox="0 0 42 42" fill="none" xmlns="http://www.w3.org/2000/svg">
<g id="9 - Email 1" clip-path="url(#clip0_101_648)">
<path id="Vector" fill-rule="evenodd" clip-rule="evenodd" d="M2.80109 19.1485L14.3661 27.1556L9.46109 32.0739C9.32727 32.202 9.22032 32.3555 9.14648 32.5254C9.07265 32.6952 9.03341 32.8781 9.03105 33.0633C9.0287 33.2485 9.06327 33.4323 9.13276 33.604C9.20225 33.7757 9.30526 33.9319 9.43578 34.0634C9.5663 34.1948 9.72171 34.299 9.89294 34.3698C10.0642 34.4405 10.2478 34.4765 10.4331 34.4755C10.6184 34.4746 10.8016 34.4368 10.9721 34.3642C11.1426 34.2917 11.2969 34.186 11.4261 34.0532L16.7061 28.7751L20.2011 31.2042C20.4346 31.3661 20.712 31.4528 20.9961 31.4528C21.2802 31.4528 21.5576 31.3661 21.7911 31.2042L25.2861 28.7751L30.5511 34.0532C30.6811 34.1831 30.8354 34.2862 31.0053 34.3566C31.1752 34.4269 31.3572 34.4631 31.5411 34.4631C31.725 34.4631 31.907 34.4269 32.0769 34.3566C32.2467 34.2862 32.4011 34.1831 32.5311 34.0532C32.6611 33.9232 32.7642 33.7689 32.8346 33.5991C32.905 33.4293 32.9412 33.2473 32.9412 33.0635C32.9412 32.8797 32.905 32.6978 32.8346 32.5279C32.7642 32.3581 32.6611 32.2039 32.5311 32.0739L27.6261 27.1556L39.1911 19.1485V34.563C39.1951 35.1713 39.0784 35.7744 38.8478 36.3373C38.6172 36.9003 38.2773 37.412 37.8477 37.8428C37.4181 38.2736 36.9073 38.6151 36.3449 38.8474C35.7825 39.0798 35.1796 39.1983 34.5711 39.1964H7.49609C6.88756 39.1983 6.28467 39.0798 5.72227 38.8474C5.15986 38.6151 4.6491 38.2736 4.2195 37.8428C3.7899 37.412 3.44998 36.9003 3.21939 36.3373C2.98881 35.7744 2.87213 35.1713 2.87609 34.563L2.80109 19.1485ZM13.4961 15.085C13.1491 15.1209 12.8278 15.2841 12.5942 15.543C12.3606 15.802 12.2313 16.1383 12.2313 16.487C12.2313 16.8356 12.3606 17.172 12.5942 17.4309C12.8278 17.6898 13.1491 17.853 13.4961 17.889H28.4961C28.6925 17.9093 28.8909 17.8882 29.0786 17.827C29.2663 17.7658 29.439 17.6659 29.5856 17.5337C29.7322 17.4015 29.8494 17.2401 29.9296 17.0598C30.0099 16.8794 30.0513 16.6843 30.0513 16.487C30.0513 16.2896 30.0099 16.0945 29.9296 15.9142C29.8494 15.7338 29.7322 15.5724 29.5856 15.4402C29.439 15.3081 29.2663 15.2081 29.0786 15.1469C28.8909 15.0858 28.6925 15.0646 28.4961 15.085H13.4961ZM34.4961 14.4402L38.0361 16.5694L34.4961 19.0286V14.4402ZM7.49609 14.4402V18.9386L3.98609 16.5694L7.49609 14.4402ZM13.3161 7.49767C12.9382 7.52153 12.5852 7.69449 12.3348 7.97851C12.0845 8.26253 11.9572 8.63433 11.9811 9.01213C12.005 9.38993 12.178 9.74277 12.4621 9.99304C12.7462 10.2433 13.1182 10.3705 13.4961 10.3467H20.9961C21.374 10.3467 21.7365 10.1966 22.0037 9.92943C22.271 9.66228 22.4211 9.29996 22.4211 8.92216C22.4211 8.54436 22.271 8.18204 22.0037 7.91489C21.7365 7.64775 21.374 7.49767 20.9961 7.49767H13.3161ZM26.9061 5.23348L30.0711 8.99713H26.9061V5.23348ZM11.9961 2.80434H24.1611V10.4966C24.1611 10.8704 24.3096 11.2289 24.5741 11.4933C24.8385 11.7576 25.1971 11.9061 25.5711 11.9061H31.7061V20.9928L20.9961 28.3402L10.3311 20.9928V4.49874C10.33 4.28624 10.372 4.07572 10.4545 3.87987C10.537 3.68402 10.6583 3.50689 10.8111 3.35915C10.9539 3.18319 11.1346 3.04186 11.3399 2.94577C11.5451 2.84968 11.7695 2.80132 11.9961 2.80434ZM25.4961 0.000346425H11.9961C10.8026 0.000346425 9.65803 0.474283 8.81411 1.3179C7.9702 2.16151 7.49609 3.30569 7.49609 4.49874V11.2463L0.761094 15.2949C0.538621 15.4091 0.350526 15.5803 0.216095 15.7911C0.0816644 16.0019 0.00573552 16.2447 -0.00390625 16.4945V34.563C0.0158557 36.5384 0.814748 38.4262 2.21913 39.816C3.62352 41.2059 5.5199 41.9855 7.49609 41.9854H34.6461C36.5962 41.9464 38.4544 41.1496 39.8266 39.764C41.1988 38.3783 41.977 36.5127 41.9961 34.563V16.4945C41.9946 16.2255 41.9161 15.9625 41.7699 15.7367C41.6237 15.5108 41.4159 15.3315 41.1711 15.2199L34.4961 11.1714V10.8565C34.5539 10.63 34.5525 10.3925 34.4921 10.1666C34.4317 9.94084 34.3143 9.73434 34.1511 9.56693L26.6511 0.570143C26.5213 0.386498 26.3477 0.238183 26.146 0.138674C25.9442 0.0391652 25.7209 -0.00838426 25.4961 0.000346425Z" fill="#5E3BEE"/>
</g>
<defs>
<clipPath id="clip0_101_648">
<rect width="42" height="42" fill="white" transform="translate(-0.00390625)"/>
</clipPath>
</defs>
</svg>
