<svg width="61" height="63" viewBox="0 0 61 63" fill="none" xmlns="http://www.w3.org/2000/svg">
<path id="Vector" d="M8.42778 52.515H10.4108L12.6642 52.785V58.7925H10.546C10.2681 58.7985 9.99176 58.7487 9.73351 58.646C9.47526 58.5433 9.24034 58.3897 9.04272 58.1945C8.8451 57.9993 8.68883 57.7664 8.58318 57.5096C8.47754 57.2529 8.42469 56.9776 8.42778 56.7V52.515ZM35.7167 50.4C35.2427 50.4046 34.7843 50.5695 34.4163 50.8677C34.0483 51.166 33.7924 51.58 33.6904 52.0421C33.5884 52.5043 33.6464 52.9874 33.8548 53.4124C34.0632 53.8375 34.4097 54.1794 34.8378 54.3825L39.0292 56.475C39.2763 56.5991 39.5454 56.6734 39.8213 56.6936C40.0971 56.7139 40.3743 56.6796 40.6369 56.5929C40.8995 56.5062 41.1424 56.3687 41.3518 56.1883C41.5612 56.0078 41.7329 55.788 41.8572 55.5412C41.9815 55.2945 42.0559 55.0258 42.0762 54.7504C42.0964 54.4749 42.0622 54.1982 41.9753 53.936C41.8885 53.6738 41.7508 53.4312 41.5701 53.2221C41.3893 53.0131 41.1691 52.8416 40.9221 52.7175L36.7082 50.625C36.3991 50.4756 36.06 50.3986 35.7167 50.4ZM35.7167 42.615C35.1954 42.6689 34.7127 42.9138 34.3618 43.3023C34.0109 43.6909 33.8166 44.1955 33.8166 44.7188C33.8166 45.242 34.0109 45.7466 34.3618 46.1352C34.7127 46.5237 35.1954 46.7686 35.7167 46.8225H39.9756C40.4968 46.7686 40.9796 46.5237 41.3305 46.1352C41.6814 45.7466 41.8756 45.242 41.8756 44.7188C41.8756 44.1955 41.6814 43.6909 41.3305 43.3023C40.9796 42.9138 40.4968 42.6689 39.9756 42.615H35.7167ZM4.16882 42.0075H8.42778V48.3075H4.21389L4.16882 42.0075ZM25.2157 40.1625V50.13L12.5966 48.555V41.805L25.2157 40.1625ZM39.9531 33.5925C39.6173 33.5945 39.2863 33.6714 38.9841 33.8175L34.8378 36C34.5907 36.1226 34.3702 36.2926 34.189 36.5003C34.0077 36.708 33.8691 36.9494 33.7812 37.2105C33.6934 37.4717 33.6578 37.7476 33.6767 38.0225C33.6956 38.2973 33.7686 38.5658 33.8914 38.8125C34.0142 39.0592 34.1845 39.2794 34.3925 39.4604C34.6005 39.6414 34.8422 39.7797 35.1038 39.8675C35.3653 39.9552 35.6416 39.9907 35.9169 39.9718C36.1922 39.9529 36.4611 39.8801 36.7082 39.7575L40.9221 37.665C41.4315 37.5135 41.8643 37.1742 42.1327 36.7161C42.4011 36.2579 42.4851 35.715 42.3676 35.1973C42.2502 34.6796 41.9401 34.2259 41.5002 33.9279C41.0602 33.6299 40.5233 33.51 39.9982 33.5925H39.9531ZM21.2723 27.315H12.4839C12.2087 27.3253 11.9382 27.3897 11.688 27.5044C11.4377 27.6191 11.2124 27.7819 11.0252 27.9836C10.8379 28.1852 10.6922 28.4217 10.5965 28.6795C10.5007 28.9373 10.4568 29.2115 10.4671 29.4862C10.4775 29.761 10.5419 30.0311 10.6568 30.281C10.7717 30.5309 10.9348 30.7558 11.1367 30.9428C11.3386 31.1298 11.5755 31.2753 11.8337 31.3709C12.0919 31.4665 12.3665 31.5103 12.6417 31.5H21.0469C21.3221 31.5148 21.5975 31.4753 21.8575 31.3838C22.1174 31.2923 22.3567 31.1505 22.5618 30.9667C22.7668 30.7828 22.9336 30.5604 23.0526 30.3122C23.1716 30.064 23.2405 29.7948 23.2553 29.52C23.2701 29.2452 23.2305 28.9702 23.1389 28.7107C23.0472 28.4511 22.9053 28.2122 22.7211 28.0074C22.537 27.8027 22.3143 27.6361 22.0657 27.5173C21.8171 27.3985 21.5475 27.3298 21.2723 27.315ZM34.2294 23.1975L35.7392 25.6725L34.6576 27.315H31.3676L34.2294 23.1975ZM12.6417 20.9475C12.0859 20.9475 11.5528 21.168 11.1598 21.5604C10.7668 21.9528 10.546 22.485 10.546 23.04C10.546 23.595 10.7668 24.1272 11.1598 24.5196C11.5528 24.912 12.0859 25.1325 12.6417 25.1325H16.833C17.3888 25.1325 17.9219 24.912 18.3149 24.5196C18.7079 24.1272 18.9287 23.595 18.9287 23.04C18.9287 22.485 18.7079 21.9528 18.3149 21.5604C17.9219 21.168 17.3888 20.9475 16.833 20.9475H12.6417ZM44.1895 20.52L48.6963 27.27H39.6827L44.1895 20.52ZM44.1895 14.625C43.8474 14.6405 43.5133 14.7337 43.2126 14.8974C42.912 15.0612 42.6527 15.2912 42.4544 15.57L38.3081 21.825L36.0547 18.27C35.8704 17.9692 35.6122 17.7203 35.3046 17.547C34.997 17.3738 34.6502 17.2819 34.297 17.28C33.9518 17.2701 33.6098 17.3474 33.3025 17.5048C32.9952 17.6621 32.7327 17.8944 32.5393 18.18C30.2859 21.51 27.8748 24.93 25.6214 28.2375C25.4088 28.5521 25.286 28.9185 25.266 29.2975C25.2461 29.6765 25.3297 30.0537 25.5079 30.3889C25.6862 30.7241 25.9524 31.0045 26.278 31.2002C26.6036 31.396 26.9764 31.4996 27.3565 31.5H52.5948C53.0545 31.539 53.5143 31.4255 53.9028 31.1769C54.2913 30.9284 54.5868 30.5588 54.7434 30.1254C54.9001 29.6921 54.9091 29.2193 54.7692 28.7803C54.6292 28.3413 54.3481 27.9607 53.9693 27.6975L45.9472 15.75C45.7568 15.4444 45.4957 15.1889 45.186 15.0049C44.8762 14.8209 44.5268 14.7138 44.167 14.6925L44.1895 14.625ZM48.2006 6.255C47.6448 6.28185 47.1224 6.52807 46.7484 6.93947C46.3744 7.35088 46.1794 7.89378 46.2063 8.44875C46.2332 9.00372 46.4798 9.52528 46.8918 9.89872C47.3039 10.2721 47.8476 10.4669 48.4034 10.44H52.5948C53.1506 10.44 53.6836 10.2195 54.0766 9.82712C54.4696 9.4347 54.6904 8.90247 54.6904 8.3475C54.6904 7.79253 54.4696 7.2603 54.0766 6.86788C53.6836 6.47546 53.1506 6.255 52.5948 6.255H48.2006ZM39.7953 6.255C39.2395 6.28185 38.7172 6.52807 38.3432 6.93947C37.9692 7.35088 37.7742 7.89378 37.8011 8.44875C37.828 9.00372 38.0746 9.52528 38.4866 9.89872C38.8986 10.2721 39.4423 10.4669 39.9982 10.44H42.1164C42.6722 10.44 43.2052 10.2195 43.5982 9.82712C43.9912 9.4347 44.212 8.90247 44.212 8.3475C44.212 7.79253 43.9912 7.2603 43.5982 6.86788C43.2052 6.47546 42.6722 6.255 42.1164 6.255H39.7953ZM31.3901 6.255C30.8343 6.28185 30.3119 6.52807 29.9379 6.93947C29.5639 7.35088 29.3689 7.89378 29.3958 8.44875C29.4227 9.00372 29.6693 9.52528 30.0813 9.89872C30.4934 10.2721 31.0371 10.4669 31.5929 10.44H33.6886C34.2444 10.44 34.7774 10.2195 35.1705 9.82712C35.5635 9.4347 35.7843 8.90247 35.7843 8.3475C35.7843 7.79253 35.5635 7.2603 35.1705 6.86788C34.7774 6.47546 34.2444 6.255 33.6886 6.255H31.3901ZM12.4839 6.3225C11.9281 6.34935 11.4058 6.59557 11.0318 7.00697C10.6578 7.41838 10.4628 7.96128 10.4897 8.51625C10.5166 9.07122 10.7631 9.59278 11.1752 9.96622C11.5872 10.3396 12.1309 10.5344 12.6867 10.5075H14.7373C15.2932 10.5075 15.8262 10.287 16.2192 9.89462C16.6122 9.5022 16.833 8.96996 16.833 8.415C16.833 7.86003 16.6122 7.3278 16.2192 6.93538C15.8262 6.54296 15.2932 6.3225 14.7373 6.3225H12.4839ZM12.6867 4.2075H52.5948C53.1479 4.20152 53.6967 4.30552 54.2092 4.51344C54.7217 4.72136 55.1876 5.02903 55.5798 5.41854C55.972 5.80805 56.2826 6.27161 56.4936 6.78219C56.7046 7.29277 56.8117 7.84018 56.8086 8.3925V54.6075C56.8117 55.1598 56.7046 55.7072 56.4936 56.2178C56.2826 56.7284 55.972 57.1919 55.5798 57.5815C55.1876 57.971 54.7217 58.2786 54.2092 58.4866C53.6967 58.6945 53.1479 58.7985 52.5948 58.7925H16.833V53.3025L25.0129 54.3375C25.5722 54.4071 26.14 54.3583 26.6791 54.1941C27.2182 54.03 27.7166 53.7542 28.1419 53.3848C28.5671 53.0154 28.9096 52.5607 29.147 52.0503C29.3844 51.5399 29.5114 50.9852 29.5198 50.4225V47.7L31.007 46.215C31.206 46.0221 31.3642 45.7912 31.4722 45.5361C31.5802 45.2811 31.6359 45.0069 31.6359 44.73C31.6359 44.4531 31.5802 44.1789 31.4722 43.9239C31.3642 43.6688 31.206 43.4379 31.007 43.245L29.5198 41.7825V39.8925C29.515 39.3287 29.3903 38.7723 29.1541 38.2601C28.9178 37.748 28.5753 37.2917 28.1493 36.9216C27.7233 36.5515 27.2234 36.276 26.6827 36.1132C26.142 35.9505 25.5729 35.9042 25.0129 35.9775L10.4108 37.8225H8.42778V8.3925C8.42476 7.84018 8.53186 7.29277 8.74283 6.78219C8.95381 6.27161 9.26445 5.80805 9.65665 5.41854C10.0488 5.02903 10.5148 4.72136 11.0272 4.51344C11.5397 4.30552 12.0885 4.20152 12.6417 4.2075H12.6867ZM12.6417 0C10.4122 0.00590464 8.2754 0.891295 6.69681 2.46328C5.11823 4.03525 4.22577 6.16643 4.21389 8.3925V37.8225C3.10199 37.8283 2.03697 38.2704 1.24862 39.0534C0.460277 39.8363 0.0118135 40.8973 0 42.0075V48.3075C0.0117268 49.4198 0.459454 50.4832 1.24718 51.2697C2.03491 52.0562 3.09993 52.5033 4.21389 52.515V56.7C4.22575 58.3711 4.8974 59.9701 6.08298 61.1496C7.26855 62.3292 8.87232 62.9941 10.546 63H52.5948C54.8221 62.9941 56.9566 62.1079 58.5316 60.5353C60.1066 58.9627 60.994 56.8315 61 54.6075V8.3925C60.994 6.1685 60.1066 4.03728 58.5316 2.46467C56.9566 0.892053 54.8221 0.00593863 52.5948 0H12.6417Z" fill="#7D6AE9"/>
</svg>
