<svg width="63" height="59" viewBox="0 0 63 59" fill="none" xmlns="http://www.w3.org/2000/svg">
<path id="Vector" d="M58.7925 33.3315V48.6573C58.8013 50.1447 58.2608 51.5846 57.2716 52.709C56.2824 53.8335 54.9118 54.5659 53.415 54.7699L41.85 41.1273L58.7925 33.3315ZM4.2075 33.3315L21.15 41.1494L16.9875 46.0661C16.8117 46.2769 16.6798 46.5198 16.5994 46.7808C16.5189 47.0419 16.4915 47.3159 16.5186 47.5874C16.5458 47.8589 16.627 48.1224 16.7577 48.363C16.8883 48.6036 17.0658 48.8164 17.28 48.9895C17.4942 49.1625 17.741 49.2924 18.0062 49.3715C18.2713 49.4507 18.5498 49.4777 18.8256 49.451C19.1014 49.4243 19.3691 49.3443 19.6135 49.2157C19.8579 49.0871 20.0742 48.9124 20.25 48.7016L28.35 39.134C28.7383 38.6661 29.2274 38.2891 29.7819 38.0302C30.3364 37.7713 30.9425 37.6369 31.5562 37.6369C32.17 37.6369 32.7761 37.7713 33.3306 38.0302C33.8851 38.2891 34.3742 38.6661 34.7625 39.134L48.06 54.8585H10.5075C9.6785 54.8644 8.85658 54.708 8.08953 54.3984C7.32248 54.0889 6.62559 53.6323 6.03938 53.0553C5.45318 52.4783 4.98935 51.7924 4.67487 51.0373C4.36038 50.2823 4.20151 49.4733 4.2075 48.6573V33.3315ZM23.1075 19.7553H25.2V23.8968H23.1075C22.7098 23.8589 22.3216 23.754 21.96 23.5867C21.3975 23.3209 21.015 23.1881 21.015 21.8149C21.015 20.4418 21.3975 20.3089 21.96 20.0432C22.3192 19.8695 22.7086 19.7643 23.1075 19.7331V19.7553ZM8.3925 19.5781V30.6517L4.2075 28.7248V25.9343C4.21331 24.9546 4.4452 23.989 4.88565 23.1104C5.32609 22.2318 5.96359 21.4632 6.75 20.8626L8.3925 19.5781ZM37.8225 18.0499V25.58L29.4075 24.1847V19.4009L37.8225 18.0499ZM52.515 18.0499L56.25 20.8626C57.0319 21.4643 57.6635 22.2342 58.0964 23.1133C58.5293 23.9924 58.752 24.9574 58.7475 25.9343V28.747L52.515 31.7147V18.0499ZM38.25 13.842C37.966 13.8094 37.679 13.8094 37.395 13.842L27 15.5916H23.1075C22.0511 15.6201 21.0141 15.8772 20.07 16.3446C19.081 16.8855 18.2569 17.677 17.6832 18.6368C17.1094 19.5967 16.8069 20.6902 16.8069 21.8039C16.8069 22.9176 17.1094 24.011 17.6832 24.9709C18.2569 25.9308 19.081 26.7222 20.07 27.2631C21.0178 27.7175 22.0536 27.9667 23.1075 27.994V30.0537C23.077 30.3436 23.1087 30.6366 23.2005 30.9137C23.2923 31.1908 23.4423 31.4459 23.6406 31.6623C23.8389 31.8788 24.0812 32.0518 24.3517 32.1703C24.6223 32.2887 24.9151 32.3499 25.2113 32.3499C25.5074 32.3499 25.8002 32.2887 26.0708 32.1703C26.3413 32.0518 26.5836 31.8788 26.7819 31.6623C26.9802 31.4459 27.1302 31.1908 27.222 30.9137C27.3138 30.6366 27.3455 30.3436 27.315 30.0537V28.0383L37.485 29.6993C38.0379 29.778 38.6014 29.7399 39.1382 29.5877C39.6749 29.4355 40.1727 29.1726 40.5983 28.8165C41.0239 28.4604 41.3677 28.0192 41.6068 27.5223C41.8458 27.0254 41.9748 26.4841 41.985 25.9343V23.8746C42.2795 23.9046 42.5772 23.8735 42.8587 23.7831C43.1403 23.6927 43.3994 23.5451 43.6193 23.3499C43.8392 23.1547 44.015 22.9162 44.1353 22.6499C44.2557 22.3836 44.3179 22.0953 44.3179 21.8039C44.3179 21.5124 44.2557 21.2242 44.1353 20.9578C44.015 20.6915 43.8392 20.453 43.6193 20.2578C43.3994 20.0626 43.1403 19.9151 42.8587 19.8247C42.5772 19.7343 42.2795 19.7031 41.985 19.7331V17.6513C41.9639 16.6701 41.5677 15.7329 40.8753 15.0267C40.1829 14.3206 39.2454 13.8975 38.25 13.842ZM14.715 11.4722H46.215C46.4896 11.4663 46.7625 11.5147 47.0176 11.6147C47.2728 11.7147 47.5049 11.8642 47.7001 12.0543C47.8953 12.2444 48.0497 12.4713 48.154 12.7213C48.2584 12.9713 48.3106 13.2395 48.3075 13.5098V33.5972L39.0825 37.8495L37.935 36.4985C37.1451 35.5758 36.1599 34.8341 35.0484 34.3253C33.9369 33.8165 32.7258 33.5529 31.5 33.5529C30.2742 33.5529 29.0631 33.8165 27.9516 34.3253C26.8401 34.8341 25.8549 35.5758 25.065 36.4985L23.94 37.8495L12.69 32.6227V13.5098C12.6899 12.977 12.9018 12.4653 13.2803 12.0844C13.6588 11.7036 14.1738 11.4838 14.715 11.4722ZM31.5 4.11937C33.5582 4.1266 35.5546 4.81281 37.17 6.06832L38.79 7.33071H24.21L25.83 6.06832C27.4471 4.81583 29.4424 4.13 31.5 4.11937ZM31.5 0C28.4988 0.0333924 25.597 1.06353 23.265 2.92342L17.415 7.35285H14.715C13.0498 7.35276 11.4518 7.9993 10.268 9.15208C9.08424 10.3048 8.41028 11.8708 8.3925 13.5098V14.3071L4.1175 17.607C2.83869 18.6005 1.80424 19.8653 1.0913 21.3072C0.378354 22.749 0.00531493 24.3307 0 25.9343V48.6573C0.0118432 51.3968 1.12268 54.0207 3.09066 55.9578C5.05864 57.8949 7.72439 58.9883 10.5075 59H52.515C55.296 58.9883 57.9594 57.8942 59.9238 55.9564C61.8882 54.0187 62.9941 51.3947 63 48.6573V25.9343C62.999 24.3323 62.6302 22.7512 61.9211 21.3092C61.212 19.8672 60.1809 18.6016 58.905 17.607L52.4025 12.5796C52.1678 11.1279 51.4169 9.8054 50.2836 8.84808C49.1503 7.89076 47.7084 7.36084 46.215 7.35285H45.6075L39.7575 2.92342C37.4125 1.071 34.5064 0.0421422 31.5 0Z" fill="#7D6AE9"/>
</svg>
