<svg width="63" height="63" viewBox="0 0 63 63" fill="none" xmlns="http://www.w3.org/2000/svg">
<path id="Vector" d="M27.315 54.6075H35.7075V58.7925H27.315V54.6075ZM17.055 46.215H45.945C45.7566 47.0359 45.3876 47.8045 44.865 48.465C44.2445 49.1506 43.4704 49.6794 42.606 50.0079C41.7416 50.3364 40.8117 50.4554 39.8925 50.355H23.1075C22.1918 50.4535 21.2657 50.3336 20.4053 50.0051C19.5448 49.6766 18.7745 49.1488 18.1575 48.465C17.6275 47.8062 17.2508 47.0376 17.055 46.215ZM10.5075 35.7075C9.95253 35.7075 9.4203 35.928 9.02788 36.3204C8.63546 36.7128 8.415 37.245 8.415 37.8C8.415 38.355 8.63546 38.8872 9.02788 39.2796C9.4203 39.672 9.95253 39.8925 10.5075 39.8925H21.015C21.57 39.8925 22.1022 39.672 22.4946 39.2796C22.887 38.8872 23.1075 38.355 23.1075 37.8C23.1075 37.245 22.887 36.7128 22.4946 36.3204C22.1022 35.928 21.57 35.7075 21.015 35.7075H10.5075ZM31.5 33.4575H33.525L35.775 33.705V35.55H31.5V33.4575ZM10.5075 28.35C10.213 28.3195 9.91529 28.3512 9.63376 28.443C9.35224 28.5348 9.09314 28.6848 8.87323 28.8831C8.65332 29.0814 8.47751 29.3237 8.35717 29.5942C8.23683 29.8648 8.17464 30.1576 8.17464 30.4538C8.17464 30.7499 8.23683 31.0427 8.35717 31.3133C8.47751 31.5838 8.65332 31.8261 8.87323 32.0244C9.09314 32.2227 9.35224 32.3727 9.63376 32.4645C9.91529 32.5563 10.213 32.588 10.5075 32.5575H16.8075C17.102 32.588 17.3997 32.5563 17.6812 32.4645C17.9628 32.3727 18.2219 32.2227 18.4418 32.0244C18.6617 31.8261 18.8375 31.5838 18.9578 31.3133C19.0782 31.0427 19.1404 30.7499 19.1404 30.4538C19.1404 30.1576 19.0782 29.8648 18.9578 29.5942C18.8375 29.3237 18.6617 29.0814 18.4418 28.8831C18.2219 28.6848 17.9628 28.5348 17.6812 28.443C17.3997 28.3512 17.102 28.3195 16.8075 28.35H10.5075ZM50.4 23.13V31.0275L33.9525 29.25H29.4525V24.975H33.9525L50.4 23.13ZM10.5075 21.015C10.2327 21.015 9.96061 21.0691 9.70674 21.1743C9.45286 21.2794 9.22219 21.4336 9.02788 21.6279C8.83357 21.8222 8.67944 22.0529 8.57428 22.3067C8.46912 22.5606 8.415 22.8327 8.415 23.1075C8.415 23.3823 8.46912 23.6544 8.57428 23.9083C8.67944 24.1621 8.83357 24.3928 9.02788 24.5871C9.22219 24.7814 9.45286 24.9356 9.70674 25.0407C9.96061 25.1459 10.2327 25.2 10.5075 25.2H18.9225C19.1973 25.2 19.4694 25.1459 19.7233 25.0407C19.9771 24.9356 20.2078 24.7814 20.4021 24.5871C20.5964 24.3928 20.7506 24.1621 20.8557 23.9083C20.9609 23.6544 21.015 23.3823 21.015 23.1075C21.015 22.8327 20.9609 22.5606 20.8557 22.3067C20.7506 22.0529 20.5964 21.8222 20.4021 21.6279C20.2078 21.4336 19.9771 21.2794 19.7233 21.1743C19.4694 21.0691 19.1973 21.015 18.9225 21.015H10.5075ZM50.1975 18.9225L33.525 20.79H29.4075C28.2973 20.7958 27.2339 21.2379 26.4467 22.0209C25.6596 22.8038 25.2118 23.8648 25.2 24.975V29.25C25.2043 29.9805 25.3996 30.6971 25.7667 31.3287C26.1338 31.9603 26.6599 32.4848 27.2925 32.85V35.55C27.3216 36.6505 27.7763 37.6968 28.561 38.4689C29.3457 39.241 30.3992 39.6787 31.5 39.69H35.7075C36.8177 39.6782 37.8787 39.2304 38.6616 38.4433C39.4446 37.6561 39.8867 36.5927 39.8925 35.4825V34.11L50.1975 35.2575C50.7603 35.3204 51.33 35.2647 51.8698 35.0938C52.4097 34.9229 52.9077 34.6407 53.3318 34.2655C53.7559 33.8902 54.0965 33.4301 54.3317 32.915C54.567 32.3999 54.6916 31.8412 54.6975 31.275V22.905C54.6916 22.3388 54.567 21.7801 54.3317 21.265C54.0965 20.7499 53.7559 20.2898 53.3318 19.9145C52.9077 19.5393 52.4097 19.2571 51.8698 19.0862C51.33 18.9153 50.7603 18.8596 50.1975 18.9225ZM8.3925 10.5075H12.6V12.6C12.3055 12.5695 12.0078 12.6012 11.7263 12.693C11.4447 12.7848 11.1856 12.9348 10.9657 13.1331C10.7458 13.3314 10.57 13.5737 10.4497 13.8442C10.3293 14.1148 10.2671 14.4076 10.2671 14.7037C10.2671 14.9999 10.3293 15.2927 10.4497 15.5633C10.57 15.8338 10.7458 16.0761 10.9657 16.2744C11.1856 16.4727 11.4447 16.6227 11.7263 16.7145C12.0078 16.8063 12.3055 16.838 12.6 16.8075H16.8075C17.102 16.838 17.3997 16.8063 17.6812 16.7145C17.9628 16.6227 18.2219 16.4727 18.4418 16.2744C18.6617 16.0761 18.8375 15.8338 18.9578 15.5633C19.0782 15.2927 19.1404 14.9999 19.1404 14.7037C19.1404 14.4076 19.0782 14.1148 18.9578 13.8442C18.8375 13.5737 18.6617 13.3314 18.4418 13.1331C18.2219 12.9348 17.9628 12.7848 17.6812 12.693C17.3997 12.6012 17.102 12.5695 16.8075 12.6V10.5075H46.215V12.6C45.9205 12.5695 45.6228 12.6012 45.3413 12.693C45.0597 12.7848 44.8006 12.9348 44.5807 13.1331C44.3608 13.3314 44.185 13.5737 44.0647 13.8442C43.9443 14.1148 43.8821 14.4076 43.8821 14.7037C43.8821 14.9999 43.9443 15.2927 44.0647 15.5633C44.185 15.8338 44.3608 16.0761 44.5807 16.2744C44.8006 16.4727 45.0597 16.6227 45.3413 16.7145C45.6228 16.8063 45.9205 16.838 46.215 16.8075H50.4225C50.717 16.838 51.0147 16.8063 51.2962 16.7145C51.5778 16.6227 51.8369 16.4727 52.0568 16.2744C52.2767 16.0761 52.4525 15.8338 52.5728 15.5633C52.6932 15.2927 52.7554 14.9999 52.7554 14.7037C52.7554 14.4076 52.6932 14.1148 52.5728 13.8442C52.4525 13.5737 52.2767 13.3314 52.0568 13.1331C51.8369 12.9348 51.5778 12.7848 51.2962 12.693C51.0147 12.6012 50.717 12.5695 50.4225 12.6V10.5075H54.6075C55.1607 10.5014 55.7095 10.6063 56.2214 10.8158C56.7334 11.0254 57.1982 11.3355 57.5883 11.7277C57.9784 12.1199 58.286 12.5863 58.4928 13.0994C58.6997 13.6125 58.8016 14.1619 58.7925 14.715V37.8225C58.7985 38.3738 58.6944 38.9207 58.4862 39.4311C58.278 39.9416 57.97 40.4053 57.5802 40.7952C57.1903 41.185 56.7266 41.493 56.2161 41.7012C55.7057 41.9094 55.1588 42.0135 54.6075 42.0075H8.3925C7.84124 42.0135 7.29434 41.9094 6.78387 41.7012C6.2734 41.493 5.80965 41.185 5.41983 40.7952C5.03001 40.4053 4.72197 39.9416 4.51379 39.4311C4.30561 38.9207 4.20147 38.3738 4.2075 37.8225V14.715C4.19845 14.1619 4.30034 13.6125 4.50717 13.0994C4.714 12.5863 5.02156 12.1199 5.41169 11.7277C5.80181 11.3355 6.26659 11.0254 6.77857 10.8158C7.29054 10.6063 7.83933 10.5014 8.3925 10.5075ZM44.1 4.2075H46.215V6.3225H44.1V4.2075ZM10.5075 4.2075H12.6V6.3225H10.5075V4.2075ZM10.5075 0C9.39523 0.011709 8.33183 0.458757 7.54529 1.24529C6.75876 2.03183 6.31171 3.09523 6.3 4.2075V6.615C4.50366 7.08143 2.9119 8.12863 1.77248 9.5936C0.633062 11.0586 0.0099041 12.8591 0 14.715V37.8225C0.0118204 40.0447 0.899823 42.1725 2.47117 43.7438C4.04251 45.3152 6.17032 46.2032 8.3925 46.215H12.78C13.055 48.0624 13.8335 49.7983 15.03 51.2325C16.0579 52.3631 17.3233 53.252 18.7354 53.8355C20.1476 54.4191 21.6714 54.6827 23.1975 54.6075V58.7925H21.105C20.5846 58.8464 20.1026 59.0913 19.7522 59.4798C19.4018 59.8684 19.2079 60.373 19.2079 60.8963C19.2079 61.4195 19.4018 61.9241 19.7522 62.3127C20.1026 62.7012 20.5846 62.9461 21.105 63H42.0975C42.6179 62.9461 43.0999 62.7012 43.4503 62.3127C43.8007 61.9241 43.9946 61.4195 43.9946 60.8963C43.9946 60.373 43.8007 59.8684 43.4503 59.4798C43.0999 59.0913 42.6179 58.8464 42.0975 58.7925H39.9825V54.6075C41.5116 54.6798 43.0379 54.4149 44.4532 53.8317C45.8685 53.2484 47.1383 52.3611 48.1725 51.2325C49.369 49.7983 50.1475 48.0624 50.4225 46.215H54.7875C56.9783 46.1566 59.0604 45.2481 60.5931 43.6817C62.1259 42.1153 62.9891 40.014 63 37.8225V14.715C62.9941 12.491 62.1079 10.3598 60.5353 8.78717C58.9627 7.21455 56.8315 6.32844 54.6075 6.3225H50.4225V4.2075C50.4108 3.09523 49.9637 2.03183 49.1772 1.24529C48.3907 0.458757 47.3273 0.011709 46.215 0H44.1C42.9877 0.011709 41.9243 0.458757 41.1378 1.24529C40.3513 2.03183 39.9042 3.09523 39.8925 4.2075V6.3225H16.8075V4.2075C16.7958 3.09523 16.3487 2.03183 15.5622 1.24529C14.7757 0.458757 13.7123 0.011709 12.6 0H10.5075Z" fill="#7D6AE9"/>
</svg>
