<svg width="16" height="16" viewBox="0 0 16 16" fill="none" xmlns="http://www.w3.org/2000/svg">
<g id="location">
<path id="Exclude" fill-rule="evenodd" clip-rule="evenodd" d="M7.99941 1.2C5.01708 1.2 2.59941 3.61766 2.59941 6.6C2.59941 7.08921 2.76621 7.69818 3.08339 8.39631C3.39714 9.08692 3.83875 9.82327 4.34272 10.5555C5.35061 12.02 6.57409 13.4197 7.42148 14.334C7.73957 14.6772 8.25926 14.6772 8.57735 14.334C9.42474 13.4197 10.6482 12.02 11.6561 10.5555C12.1601 9.82327 12.6017 9.08692 12.9154 8.39631C13.2326 7.69818 13.3994 7.08921 13.3994 6.6C13.3994 3.61766 10.9818 1.2 7.99941 1.2ZM1.39941 6.6C1.39941 2.95492 4.35433 0 7.99941 0C11.6445 0 14.5994 2.95492 14.5994 6.6C14.5994 7.33397 14.3574 8.12345 14.008 8.89267C13.6551 9.66942 13.1722 10.4693 12.6446 11.2359C11.5895 12.769 10.322 14.217 9.45747 15.1498C8.6645 16.0053 7.33433 16.0053 6.54136 15.1498C5.67687 14.217 4.40935 12.769 3.35421 11.2359C2.82666 10.4693 2.34374 9.66942 1.99085 8.89267C1.64138 8.12345 1.39941 7.33397 1.39941 6.6ZM7.99941 4.5C7.11576 4.5 6.39941 5.21634 6.39941 6.1C6.39941 6.98366 7.11576 7.7 7.99941 7.7C8.88307 7.7 9.59941 6.98366 9.59941 6.1C9.59941 5.21634 8.88307 4.5 7.99941 4.5ZM4.59941 6.1C4.59941 4.22223 6.12165 2.7 7.99941 2.7C9.87718 2.7 11.3994 4.22223 11.3994 6.1C11.3994 7.97777 9.87718 9.5 7.99941 9.5C6.12165 9.5 4.59941 7.97777 4.59941 6.1Z" fill="white"/>
<circle id="Ellipse 196" cx="8" cy="6.1001" r="2.5" stroke="white" stroke-width="1.2"/>
</g>
</svg>
