<svg width="16" height="16" viewBox="0 0 16 16" fill="none" xmlns="http://www.w3.org/2000/svg">
<path d="M12.0558 16C11.2149 16 10.3293 15.7991 9.41395 15.4121C8.52093 15.0326 7.62047 14.5116 6.74233 13.8791C5.87163 13.2391 5.0307 12.5247 4.23442 11.7433C3.44558 10.947 2.73116 10.106 2.0986 9.24279C1.4586 8.34977 0.945116 7.45674 0.580465 6.59349C0.193488 5.6707 0 4.77767 0 3.93674C0 3.35628 0.104186 2.80558 0.305116 2.29209C0.513488 1.76372 0.848372 1.27256 1.30233 0.848372C1.87535 0.282791 2.53023 0 3.22977 0C3.52 0 3.81767 0.0669767 4.0707 0.186047C4.36093 0.32 4.60651 0.52093 4.78512 0.788837L6.51163 3.22233C6.66791 3.43814 6.78698 3.64651 6.86884 3.85488C6.96558 4.07814 7.01768 4.3014 7.01768 4.51721C7.01768 4.8 6.93581 5.07535 6.77954 5.33581C6.66791 5.53674 6.49674 5.75256 6.28093 5.96837L5.77488 6.49674C5.78233 6.51907 5.78977 6.53395 5.79721 6.54884C5.88651 6.70512 6.06512 6.97302 6.40744 7.37488C6.77209 7.79163 7.11442 8.17116 7.45675 8.52093C7.89582 8.95256 8.26047 9.29488 8.60279 9.57767C9.02698 9.93488 9.30233 10.1135 9.46605 10.1953L9.99442 9.69674C10.2251 9.46605 10.4484 9.29488 10.6642 9.18326C11.0735 8.93023 11.5944 8.88558 12.1154 9.10139C12.3088 9.18326 12.5172 9.29488 12.7405 9.45116L15.2112 11.2074C15.4865 11.3935 15.6874 11.6316 15.8065 11.9144C15.9181 12.1972 15.9702 12.4577 15.9702 12.7181C15.9702 13.0753 15.8884 13.4326 15.7321 13.7674C15.5758 14.1023 15.3823 14.3926 15.1367 14.6605C14.7126 15.1293 14.2512 15.4642 13.7154 15.68C13.2019 15.8884 12.6437 16 12.0558 16ZM3.22977 1.11628C2.82047 1.11628 2.44093 1.29488 2.07628 1.65209C1.73395 1.97209 1.49581 2.32186 1.34698 2.7014C1.1907 3.08837 1.11628 3.49767 1.11628 3.93674C1.11628 4.62884 1.28 5.38047 1.60744 6.15442C1.94233 6.94326 2.41116 7.76186 3.00651 8.58047C3.60186 9.39907 4.27907 10.1953 5.02326 10.947C5.76744 11.6837 6.57116 12.3684 7.39721 12.9712C8.20093 13.5591 9.02698 14.0353 9.84558 14.3777C11.1181 14.9209 12.3088 15.0474 13.2912 14.6381C13.6707 14.4819 14.0056 14.2437 14.3107 13.9014C14.4819 13.7153 14.6158 13.5144 14.7274 13.2763C14.8167 13.0902 14.8614 12.8967 14.8614 12.7033C14.8614 12.5842 14.8391 12.4651 14.7795 12.3312C14.7572 12.2865 14.7126 12.2047 14.5712 12.1079L12.1005 10.3516C11.9516 10.2474 11.8177 10.173 11.6912 10.1209C11.5274 10.054 11.4605 9.98698 11.2074 10.1433C11.0586 10.2177 10.9247 10.3293 10.7758 10.4781L10.2102 11.0363C9.92 11.3191 9.47349 11.386 9.13116 11.2595L8.93023 11.1702C8.62512 11.0065 8.26791 10.7535 7.87349 10.4186C7.51628 10.1135 7.1293 9.75628 6.66047 9.29488C6.29581 8.92279 5.93116 8.52837 5.55163 8.0893C5.20186 7.68 4.94884 7.33023 4.79256 7.04L4.70326 6.81674C4.65861 6.64558 4.64372 6.54884 4.64372 6.44465C4.64372 6.17674 4.74047 5.9386 4.92651 5.75256L5.48465 5.17209C5.63349 5.02326 5.74512 4.88186 5.81954 4.75535C5.87907 4.6586 5.9014 4.57674 5.9014 4.50233C5.9014 4.44279 5.87907 4.35349 5.84186 4.26419C5.78977 4.14512 5.70791 4.01116 5.60372 3.86977L3.87721 1.42884C3.80279 1.32465 3.71349 1.25023 3.60186 1.19814C3.48279 1.14605 3.35628 1.11628 3.22977 1.11628Z" fill="white"/>
<path d="M12.8366 6.32567C12.5315 6.32567 12.2785 6.07264 12.2785 5.76753C12.2785 5.49962 12.0106 4.94148 11.5641 4.4652C11.125 3.99636 10.6413 3.72102 10.232 3.72102C9.92685 3.72102 9.67383 3.46799 9.67383 3.16288C9.67383 2.85776 9.92685 2.60474 10.232 2.60474C10.9538 2.60474 11.7129 2.99171 12.3752 3.69869C12.9929 4.36102 13.3948 5.17218 13.3948 5.76753C13.3948 6.07264 13.1417 6.32567 12.8366 6.32567Z" fill="white"/>
<path d="M15.4413 6.32558C15.1362 6.32558 14.8831 6.07256 14.8831 5.76744C14.8831 3.2 12.7994 1.11628 10.232 1.11628C9.92685 1.11628 9.67383 0.863256 9.67383 0.55814C9.67383 0.253023 9.92685 0 10.232 0C13.4096 0 15.9994 2.58977 15.9994 5.76744C15.9994 6.07256 15.7464 6.32558 15.4413 6.32558Z" fill="white"/>
</svg>
